<?xml version="1.0" standalone="no"?>
<!DOCTYPE svg PUBLIC "-//W3C//DTD SVG 20010904//EN"
 "http://www.w3.org/TR/2001/REC-SVG-20010904/DTD/svg10.dtd">
<svg version="1.0" xmlns="http://www.w3.org/2000/svg"
 width="1920.000000pt" height="584.000000pt" viewBox="0 0 1920.000000 584.000000"
 preserveAspectRatio="xMidYMid meet">

<g transform="translate(0.000000,584.000000) scale(0.100000,-0.100000)"
fill="#000000" stroke="none">
<path d="M220 5473 c-67 -24 -141 -104 -164 -177 -22 -69 -18 -164 8 -215 27
-52 86 -111 138 -137 l48 -24 0 -369 c0 -203 3 -376 6 -385 3 -8 113 -102 245
-208 l239 -192 0 -451 c0 -523 -17 -447 144 -633 l106 -123 0 -343 0 -344 -53
-30 c-100 -56 -149 -139 -149 -252 0 -249 289 -383 476 -219 124 109 131 305
16 420 -26 25 -63 52 -83 60 l-37 13 -1 336 c-1 184 0 346 0 360 3 44 -14 71
-133 210 l-116 135 -2 785 c-4 940 -2 1033 15 1028 7 -2 100 -52 205 -113
l192 -109 0 -86 0 -86 -35 -17 c-53 -25 -111 -83 -139 -140 -20 -40 -26 -66
-26 -119 0 -146 88 -256 231 -288 151 -34 305 69 338 226 27 127 -43 267 -159
319 l-40 18 0 113 c0 62 -5 124 -11 137 -7 15 -53 48 -122 87 -62 35 -143 82
-182 105 -223 132 -325 185 -353 185 -21 0 -38 -9 -56 -31 l-26 -30 0 -451 c0
-248 -1 -452 -2 -453 -2 -2 -75 57 -163 129 l-160 132 -3 340 -2 340 37 13
c56 21 126 97 153 167 55 148 -31 328 -180 373 -52 15 -146 12 -200 -6z m160
-158 c65 -34 89 -109 55 -175 -59 -114 -252 -48 -229 78 9 49 28 77 67 96 40
20 70 20 107 1z m1090 -1170 c76 -39 79 -160 6 -209 -31 -20 -98 -21 -135 -1
-30 15 -61 69 -61 105 0 35 30 90 59 105 34 19 95 19 131 0z m-331 -2450 c30
-15 61 -69 61 -104 0 -36 -26 -86 -55 -105 -34 -23 -105 -23 -140 0 -50 33
-66 89 -44 153 22 62 113 90 178 56z"/>
<path d="M2135 5465 l-25 -24 0 -363 0 -362 193 -193 193 -193 278 0 278 0 82
80 82 79 49 -15 c130 -40 273 16 343 135 24 41 27 56 27 141 0 85 -3 100 -27
140 -97 166 -306 200 -446 75 -64 -58 -95 -127 -95 -215 0 -36 7 -81 15 -100
l15 -35 -52 -58 -52 -57 -219 0 -219 0 -137 138 -137 137 -1 225 c0 124 -1
249 0 279 l0 53 288 -5 c317 -5 407 -16 632 -73 130 -33 290 -93 414 -156 235
-119 476 -316 630 -516 53 -69 156 -230 156 -244 0 -4 -61 -8 -135 -8 l-135 0
-14 35 c-9 20 -40 60 -69 90 -43 42 -67 57 -112 71 -138 40 -275 -20 -343
-151 -36 -70 -37 -178 -3 -249 29 -60 85 -116 140 -141 l41 -18 0 -379 0 -378
-324 0 -325 0 -28 -24 c-28 -24 -28 -26 -31 -154 -3 -127 -3 -131 19 -143 l23
-12 -22 -8 c-20 -8 -22 -15 -22 -84 0 -87 15 -99 43 -35 23 54 52 56 42 3 -4
-21 -7 -47 -6 -58 1 -11 3 -26 3 -32 1 -7 5 -13 10 -13 4 0 8 -5 8 -10 0 -19
-39 14 -51 43 l-12 28 -22 -21 c-18 -16 -35 -20 -98 -20 l-76 0 -3 47 -3 46
-36 -36 c-36 -36 -59 -47 -59 -27 0 6 5 10 11 10 15 0 69 59 69 75 0 7 -6 18
-13 24 -8 6 -15 31 -15 55 -2 37 2 48 23 64 24 19 25 24 25 140 0 143 8 129
-165 278 l-124 106 -3 191 c-2 106 -2 229 0 275 l3 82 167 0 168 0 57 -58 58
-58 -16 -37 c-19 -47 -19 -141 1 -199 47 -139 218 -221 362 -174 69 23 143 91
173 158 89 201 -74 427 -291 405 -32 -4 -70 -12 -84 -18 -25 -12 -30 -8 -105
64 l-79 77 -260 0 c-143 0 -268 -3 -277 -6 -40 -16 -44 -46 -44 -403 -1 -279
1 -347 13 -369 8 -15 73 -76 145 -137 l131 -110 0 -192 c0 -122 4 -193 10
-193 6 0 10 18 10 40 0 47 24 100 45 100 18 0 18 -23 1 -71 -13 -37 -15 -67
-4 -84 9 -16 2 -59 -10 -63 -12 -4 -17 22 -13 62 1 18 -1 17 -19 -4 -11 -13
-20 -31 -20 -42 0 -17 -11 -18 -172 -18 -151 0 -177 -2 -203 -19 -51 -31 -689
-688 -698 -718 -4 -16 -7 -100 -6 -188 0 -88 0 -237 0 -331 l-1 -171 -41 -18
c-53 -24 -123 -103 -143 -162 -64 -189 70 -383 265 -383 125 0 214 53 266 158
60 122 27 267 -79 352 -28 22 -62 43 -75 46 l-23 6 0 322 0 321 308 307 307
308 755 0 c572 1 761 4 780 13 19 9 59 79 160 277 l135 265 2 95 c1 52 2 123
3 158 l0 62 180 0 180 0 0 -169 0 -168 -56 -124 c-45 -99 -55 -130 -51 -160 3
-20 51 -160 107 -310 56 -151 135 -363 176 -472 41 -109 74 -205 74 -212 0
-13 -31 -15 -194 -15 -279 0 -281 -3 -196 -249 28 -79 50 -145 50 -146 0 -2
-37 -16 -82 -30 -116 -38 -144 -52 -157 -81 -19 -42 -13 -57 60 -158 39 -53
70 -98 68 -100 -2 -2 -29 -22 -59 -46 -30 -23 -59 -50 -65 -59 -5 -9 -12 -88
-15 -176 -5 -151 -6 -162 -32 -206 -35 -59 -84 -102 -142 -124 -190 -73 -846
141 -1243 405 -264 175 -414 346 -483 550 -18 52 -23 99 -29 233 -6 161 -7
170 -30 188 -27 22 -78 24 -103 5 -28 -21 -38 -62 -38 -154 0 -297 79 -495
279 -705 271 -284 713 -517 1257 -663 82 -22 127 -27 262 -31 l163 -5 63 31
c77 37 167 129 201 203 30 66 45 157 45 274 l0 92 41 33 c115 95 119 100 119
138 0 28 -12 53 -55 111 -30 41 -55 78 -55 81 0 3 26 13 58 23 174 55 179 67
118 251 -25 76 -46 141 -46 146 0 5 64 9 143 9 129 0 146 2 182 23 50 29 85
88 85 147 0 33 -34 134 -129 390 -71 190 -152 407 -181 483 l-51 138 53 117
53 117 0 285 c-1 305 -9 408 -52 600 -83 377 -259 704 -522 970 -346 348 -779
557 -1295 625 -77 11 -208 15 -438 15 l-329 0 -24 -25z m1281 -611 c24 -12 38
-28 50 -61 16 -41 16 -50 3 -86 -36 -106 -180 -116 -224 -16 -51 113 58 217
171 163z m519 -514 c38 -35 49 -89 29 -139 -35 -89 -146 -104 -209 -30 -45 54
-28 150 33 184 39 22 116 14 147 -15z m515 -180 l38 0 26 -72 c52 -145 89
-316 109 -505 l5 -43 -239 0 -240 0 -24 -26 c-25 -27 -25 -29 -25 -220 l0
-194 -107 -215 -108 -215 -327 0 -328 0 0 185 0 185 278 1 c152 1 293 0 314
-1 55 -2 95 23 107 68 6 21 10 212 10 447 1 370 2 411 17 420 84 51 112 76
142 125 l32 55 128 5 c70 3 133 4 140 3 8 -2 31 -3 52 -3z m-1065 -312 c86
-67 54 -204 -51 -221 -101 -17 -177 90 -129 183 31 60 127 80 180 38z m-254
-970 c0 -10 2 -10 6 0 4 10 8 10 19 1 12 -9 12 -15 2 -27 -10 -13 -10 -14 0
-8 15 9 16 -6 0 -22 -21 -21 -39 -14 -32 12 3 13 1 27 -5 30 -6 4 -11 11 -11
17 0 14 20 11 21 -3z m-1331 -1803 c37 -19 60 -63 60 -115 0 -32 -7 -48 -34
-78 -31 -33 -39 -37 -84 -37 -63 0 -102 26 -120 80 -36 108 77 202 178 150z"/>
<path d="M1834 5280 c-53 -21 -54 -26 -54 -414 l0 -360 165 -166 165 -166 0
-502 c0 -438 2 -503 15 -508 8 -4 15 -10 15 -15 0 -5 -7 -9 -15 -9 -12 0 -15
-17 -15 -93 l0 -92 -85 -85 c-47 -47 -85 -91 -85 -99 0 -7 10 -33 22 -57 17
-36 28 -45 56 -50 33 -6 38 -3 138 97 57 56 108 114 114 129 7 17 10 234 8
688 l-3 662 -167 168 -168 167 0 333 c0 319 -1 333 -20 352 -11 11 -24 20 -29
20 -5 0 -15 2 -23 4 -7 3 -23 1 -34 -4z m346 -2129 c0 -5 8 -11 18 -13 9 -3
24 -17 32 -32 12 -24 12 -28 0 -36 -10 -7 -11 -10 -2 -10 6 0 12 -7 12 -15 0
-8 -5 -15 -11 -15 -5 0 -7 -4 -4 -10 3 -5 -1 -10 -10 -10 -9 0 -14 -4 -10 -10
3 -5 -8 -16 -25 -25 -17 -9 -30 -11 -30 -5 0 5 8 10 17 10 9 0 13 3 10 6 -3 4
-1 16 5 28 13 24 18 117 6 110 -4 -3 -8 0 -8 5 0 6 -7 11 -15 11 -8 0 -15 5
-15 10 0 6 7 10 15 10 8 0 15 -4 15 -9z"/>
<path d="M6117 3694 c-4 -4 -7 -326 -7 -716 l0 -708 175 0 175 0 0 205 0 205
388 0 c382 0 388 1 426 23 22 12 53 39 70 60 l31 39 0 382 0 383 -29 41 c-17
25 -47 50 -75 64 -46 23 -46 23 -596 26 -303 1 -554 0 -558 -4z m907 -306 c24
-33 23 -379 0 -402 -13 -14 -54 -16 -290 -16 l-274 0 0 220 0 220 274 0 c273
0 275 0 290 -22z"/>
<path d="M7590 2985 l0 -715 170 0 170 0 0 715 0 715 -170 0 -170 0 0 -715z"/>
<path d="M8289 3687 c-63 -18 -104 -50 -128 -100 -21 -42 -21 -56 -21 -606 0
-533 1 -564 19 -599 24 -47 56 -77 103 -97 56 -23 960 -23 1016 1 100 41 132
113 132 296 l0 118 -175 0 -175 0 0 -53 c0 -89 5 -87 -292 -87 -234 0 -256 1
-271 18 -15 17 -17 60 -17 408 0 290 3 393 12 402 17 17 539 17 556 0 7 -7 12
-38 12 -70 l0 -58 176 0 176 0 -4 143 c-5 178 -23 223 -113 271 -39 20 -51 21
-500 23 -344 2 -471 -1 -506 -10z"/>
<path d="M10180 2985 l0 -715 170 0 170 0 2 431 3 431 155 -329 156 -328 85
-3 86 -3 154 327 154 327 3 -427 2 -426 175 0 175 0 0 715 0 715 -172 -2 -173
-3 -23 -45 c-12 -25 -103 -209 -201 -410 l-178 -365 -203 413 -203 412 -169 0
-168 0 0 -715z"/>
<path d="M12036 3689 c-60 -14 -103 -46 -134 -97 l-27 -47 -3 -530 c-2 -360 0
-546 8 -581 13 -62 59 -120 114 -145 38 -17 75 -19 511 -19 l470 0 52 24 c36
17 60 38 80 67 l28 43 3 555 c2 306 0 571 -3 589 -4 21 -24 51 -53 81 -38 40
-57 51 -100 60 -65 13 -888 13 -946 0z m754 -308 c6 -13 10 -156 10 -398 0
-326 -2 -382 -16 -401 -15 -22 -18 -22 -270 -22 -157 0 -263 4 -275 10 -18 10
-19 25 -19 408 0 296 3 401 12 410 9 9 85 12 280 12 254 0 268 -1 278 -19z"/>
<path d="M13499 3686 c-63 -17 -104 -48 -128 -99 -20 -41 -21 -60 -21 -320 0
-170 4 -286 11 -304 11 -30 62 -88 94 -106 14 -8 137 -14 403 -17 365 -5 384
-6 398 -24 10 -14 14 -49 14 -121 0 -86 -3 -104 -18 -118 -17 -15 -62 -17
-440 -17 l-422 0 0 -145 0 -145 530 0 c585 0 572 -1 638 63 54 52 62 100 62
358 0 260 -8 315 -53 366 -63 72 -68 73 -478 73 -342 0 -367 1 -382 18 -21 23
-25 208 -4 235 11 15 52 17 442 19 l430 3 0 145 0 145 -515 2 c-382 1 -527 -1
-561 -11z"/>
<path d="M15205 3690 c-7 -12 -465 -1402 -465 -1412 0 -5 81 -8 179 -8 l179 0
44 133 45 132 295 3 296 2 40 -112 c22 -62 43 -123 46 -135 7 -23 9 -23 187
-23 l180 0 -7 23 c-4 12 -110 334 -236 715 l-229 692 -274 0 c-171 0 -276 -4
-280 -10z m380 -570 c52 -156 95 -285 95 -287 0 -2 -88 -3 -195 -3 -107 0
-195 3 -195 8 0 6 168 516 185 561 3 8 8 12 10 9 3 -2 47 -132 100 -288z"/>
<path d="M16357 3694 c-4 -4 -7 -326 -7 -716 l0 -708 175 0 175 0 -2 713 -3
712 -166 3 c-91 1 -168 -1 -172 -4z"/>
<path d="M17061 3689 c-57 -11 -110 -53 -138 -109 l-23 -44 0 -552 0 -552 28
-53 c22 -43 38 -59 82 -82 l54 -28 487 3 487 3 43 30 c23 17 53 50 66 74 21
40 23 57 23 183 l0 138 -169 0 -169 0 -4 -56 c-3 -40 -10 -61 -23 -70 -28 -21
-513 -20 -541 0 -18 14 -19 32 -22 396 -2 333 -1 386 13 406 l15 24 265 0
c261 0 264 0 279 -22 9 -13 16 -43 16 -70 l0 -48 170 0 170 0 0 138 c0 152
-12 193 -66 244 -57 53 -56 53 -544 55 -250 1 -475 -3 -499 -8z"/>
<path d="M187 3566 c-196 -73 -252 -334 -102 -479 21 -20 55 -44 76 -54 l38
-16 3 -181 c2 -100 2 -227 0 -283 l-3 -102 -54 -30 c-95 -54 -143 -138 -144
-251 -2 -151 109 -274 259 -287 219 -20 380 204 291 404 -26 58 -93 127 -147
149 l-34 14 0 283 0 283 33 12 c53 19 113 78 144 139 69 142 11 312 -130 385
-53 27 -175 35 -230 14z m146 -160 c46 -19 69 -49 74 -99 9 -81 -42 -137 -126
-137 -72 0 -132 78 -116 150 8 36 56 87 88 93 40 8 47 7 80 -7z m20 -1128 c27
-14 57 -69 57 -106 0 -106 -123 -162 -203 -92 -113 98 12 267 146 198z"/>
<path d="M1333 3491 c-49 -13 -119 -57 -152 -98 -46 -55 -64 -122 -59 -208 7
-109 57 -184 159 -236 l39 -19 0 -103 c0 -56 1 -242 3 -414 l2 -311 24 -26
c17 -19 35 -26 60 -26 33 0 54 19 314 279 245 244 278 281 272 301 -6 18 -9
20 -16 9 -7 -11 -9 -11 -9 -1 0 7 -4 11 -8 8 -9 -5 -43 25 -67 59 -13 19 -24
10 -210 -175 l-195 -195 0 297 0 298 34 14 c54 22 121 91 147 149 61 139 -2
313 -137 376 -50 24 -151 35 -201 22z m137 -176 c91 -47 73 -191 -27 -223 -37
-12 -46 -11 -86 6 -68 30 -94 99 -62 166 29 61 110 84 175 51z"/>
<path d="M2869 2918 c-9 -18 -1 -58 13 -67 16 -10 18 -7 18 29 0 29 -4 40 -15
40 -8 0 -16 -1 -16 -2z"/>
<path d="M3116 2753 c-6 -14 -5 -15 5 -6 7 7 10 15 7 18 -3 3 -9 -2 -12 -12z"/>
<path d="M3104 2720 c2 -16 20 -14 24 2 3 10 2 10 -6 -1 -7 -9 -11 -10 -15 -2
-4 7 -5 8 -3 1z"/>
<path d="M1915 2700 c3 -5 8 -10 11 -10 2 0 4 5 4 10 0 6 -5 10 -11 10 -5 0
-7 -4 -4 -10z"/>
<path d="M10530 1750 c0 -243 1 -250 20 -250 19 0 20 7 20 250 0 243 -1 250
-20 250 -19 0 -20 -7 -20 -250z"/>
<path d="M13460 1750 c0 -243 1 -250 20 -250 19 0 20 7 20 250 0 243 -1 250
-20 250 -19 0 -20 -7 -20 -250z"/>
<path d="M15130 1798 c0 -112 4 -208 8 -214 13 -20 52 -35 72 -29 31 10 25 43
-7 47 l-28 3 -3 198 c-2 189 -3 197 -22 197 -19 0 -20 -7 -20 -202z"/>
<path d="M7715 1958 c-17 -47 -135 -390 -135 -394 0 -2 11 -4 24 -4 21 0 28 8
42 55 l18 55 91 0 91 0 18 -55 c14 -47 21 -55 42 -55 13 0 24 2 24 4 0 4 -124
360 -135 389 -8 20 -73 24 -80 5z m75 -133 c17 -49 30 -95 30 -102 0 -9 -19
-13 -70 -13 -38 0 -70 1 -70 3 0 3 55 169 65 196 8 21 12 12 45 -84z"/>
<path d="M10840 1765 l0 -205 25 0 25 0 0 205 0 205 -25 0 -25 0 0 -205z"/>
<path d="M13866 1961 c-8 -13 -136 -382 -136 -392 0 -5 10 -9 23 -9 20 0 26 9
41 55 l17 56 91 -3 91 -3 17 -50 c14 -42 21 -51 43 -53 l27 -3 -70 202 c-39
111 -70 203 -70 205 0 8 -69 3 -74 -5z m72 -133 c18 -51 32 -99 32 -105 0 -9
-21 -13 -70 -13 -38 0 -70 3 -70 7 0 15 65 203 70 203 3 0 20 -42 38 -92z"/>
<path d="M9843 1942 c-19 -3 -23 -10 -23 -38 0 -30 -3 -34 -25 -34 -18 0 -25
-5 -25 -20 0 -14 7 -20 24 -20 24 0 24 -1 28 -114 3 -126 13 -149 68 -160 39
-7 93 12 86 31 -3 8 -6 16 -6 18 0 2 -16 1 -35 -2 -58 -9 -65 5 -65 123 l0
104 50 0 c43 0 50 3 50 20 0 17 -7 20 -49 20 l-50 0 -3 38 c-3 32 -6 37 -25
34z"/>
<path d="M16228 1942 c-11 -2 -18 -15 -20 -35 -2 -27 -8 -33 -31 -35 -37 -4
-33 -36 6 -40 l27 -3 0 -110 c0 -61 4 -119 10 -129 23 -43 135 -47 135 -4 0
16 -6 18 -42 16 -55 -4 -63 12 -63 132 l0 96 50 0 c43 0 50 3 50 20 0 17 -7
20 -49 20 l-50 0 -3 38 c-2 29 -7 37 -20 34z"/>
<path d="M8370 1905 c0 -31 -3 -35 -25 -35 -18 0 -25 -5 -25 -20 0 -15 7 -20
25 -20 l25 0 0 -109 c0 -120 13 -154 66 -164 43 -8 93 10 87 31 -3 14 -14 18
-51 18 l-47 -1 -3 112 -3 112 48 3 c36 2 49 7 51 21 3 14 -4 17 -47 17 l-51 0
0 35 c0 31 -3 35 -25 35 -22 0 -25 -4 -25 -35z"/>
<path d="M12750 1905 c0 -31 -3 -35 -25 -35 -18 0 -25 -5 -25 -20 0 -15 7 -20
25 -20 l25 0 0 -109 c0 -120 13 -154 66 -164 43 -8 93 10 87 31 -3 14 -14 18
-51 18 l-47 -1 -3 112 -3 112 48 3 c36 2 49 7 51 21 3 14 -4 17 -47 17 l-51 0
0 35 c0 31 -3 35 -25 35 -22 0 -25 -4 -25 -35z"/>
<path d="M8675 1873 c-63 -18 -97 -70 -98 -152 -1 -105 51 -165 144 -165 87 0
139 59 139 157 0 67 -20 118 -56 142 -26 17 -97 27 -129 18z m109 -62 c40 -40
37 -160 -5 -194 -35 -28 -106 -20 -133 16 -29 39 -29 136 -1 168 39 43 101 47
139 10z"/>
<path d="M9060 1873 c-8 -3 -25 -15 -37 -26 l-23 -20 0 21 c0 17 -6 22 -25 22
l-25 0 0 -155 0 -155 24 0 c24 0 24 1 28 116 3 113 4 116 31 140 32 27 64 31
93 10 17 -13 19 -30 23 -140 3 -116 5 -126 22 -126 17 0 19 8 19 95 0 141 33
199 105 181 36 -9 45 -41 45 -167 0 -102 1 -109 20 -109 19 0 20 7 20 125 0
71 -5 135 -11 149 -24 52 -114 59 -158 12 l-22 -23 -29 28 c-28 28 -63 36
-100 22z"/>
<path d="M9545 1873 c-11 -3 -32 -14 -47 -25 -23 -16 -26 -23 -18 -38 10 -18
12 -18 47 5 57 39 123 28 123 -20 0 -28 -18 -40 -75 -50 -88 -16 -123 -54
-111 -119 13 -66 104 -94 164 -49 28 20 29 21 40 2 17 -27 72 -26 72 1 0 13
-7 20 -19 20 -18 0 -20 10 -23 115 -3 101 -5 117 -24 136 -22 22 -89 33 -129
22z m105 -188 c0 -35 -6 -52 -25 -70 -47 -48 -120 -20 -113 41 2 22 11 31 38
40 46 15 94 32 98 33 1 1 2 -19 2 -44z"/>
<path d="M10110 1862 c-19 -9 -45 -33 -58 -52 -21 -30 -23 -45 -20 -107 3 -64
7 -76 33 -103 38 -39 92 -54 145 -40 37 10 80 43 80 62 0 19 -30 18 -49 -1
-15 -15 -34 -21 -66 -21 -56 0 -95 32 -95 80 l0 30 111 0 112 0 -7 47 c-8 59
-29 91 -71 109 -45 18 -73 18 -115 -4z m115 -47 c14 -13 25 -36 25 -50 0 -25
-1 -25 -85 -25 -92 0 -97 4 -74 54 23 49 95 61 134 21z"/>
<path d="M11110 1869 c-14 -5 -33 -20 -42 -32 l-18 -22 0 28 c0 20 -5 27 -20
27 -19 0 -20 -7 -20 -155 0 -145 1 -155 19 -155 17 0 19 10 23 108 4 117 14
144 61 163 37 16 77 2 94 -31 8 -15 13 -66 13 -132 0 -101 1 -108 20 -108 19
0 20 7 20 129 0 120 -2 132 -23 156 -25 30 -86 41 -127 24z"/>
<path d="M11454 1861 c-18 -11 -34 -25 -37 -33 -3 -7 -6 -1 -6 15 -1 22 -6 27
-26 27 l-25 0 0 -155 0 -155 25 0 c25 0 25 0 25 94 0 110 12 151 51 171 36 19
59 19 87 -1 21 -14 22 -22 22 -140 l0 -124 25 0 25 0 0 120 c0 71 -5 130 -12
145 -24 53 -98 70 -154 36z"/>
<path d="M11805 1873 c-63 -18 -97 -70 -98 -152 -1 -105 51 -165 144 -165 87
0 139 59 139 157 0 67 -20 118 -56 142 -26 17 -97 27 -129 18z m109 -62 c40
-40 37 -160 -5 -194 -35 -28 -106 -20 -133 16 -29 39 -29 136 -1 168 39 43
101 47 139 10z"/>
<path d="M12475 1873 c-11 -3 -32 -14 -47 -25 -23 -16 -26 -23 -18 -38 10 -18
12 -18 47 5 57 39 123 28 123 -20 0 -28 -18 -40 -75 -50 -88 -16 -123 -54
-111 -119 13 -66 104 -94 164 -49 28 20 29 21 40 2 17 -27 72 -26 72 1 0 13
-7 20 -19 20 -18 0 -20 10 -23 115 -3 101 -5 117 -24 136 -22 22 -89 33 -129
22z m105 -188 c0 -35 -6 -52 -25 -70 -47 -48 -120 -20 -113 41 2 22 11 31 38
40 46 15 94 32 98 33 1 1 2 -19 2 -44z"/>
<path d="M13030 1861 c-51 -27 -72 -70 -72 -145 0 -97 30 -140 115 -160 56
-13 162 41 142 73 -10 17 -30 13 -50 -9 -15 -17 -29 -20 -68 -18 -55 3 -84 29
-89 78 l-3 25 108 3 107 3 0 42 c0 56 -18 88 -60 109 -45 23 -87 23 -130 -1z
m119 -38 c11 -10 24 -33 27 -50 l7 -33 -87 0 c-80 0 -86 1 -86 21 0 65 87 104
139 62z"/>
<path d="M14211 1863 c-52 -27 -74 -64 -79 -131 -3 -46 0 -68 17 -100 45 -88
164 -104 226 -30 25 29 26 33 10 44 -15 11 -21 8 -42 -17 -20 -24 -32 -29 -68
-29 -60 0 -95 40 -95 111 0 62 20 102 59 119 36 15 74 7 102 -21 23 -23 52
-18 47 7 -10 51 -117 79 -177 47z"/>
<path d="M14531 1864 c-62 -32 -94 -120 -72 -201 28 -105 158 -144 232 -71 33
33 36 46 14 54 -9 4 -25 -4 -40 -20 -34 -37 -101 -37 -136 0 -20 22 -24 36
-24 90 0 56 3 67 28 91 36 37 95 38 132 3 22 -21 27 -22 40 -9 14 13 12 18
-13 42 -38 36 -112 45 -161 21z"/>
<path d="M14850 1862 c-70 -35 -99 -144 -61 -229 26 -56 59 -76 126 -76 58 0
96 18 115 53 16 30 -15 38 -44 11 -16 -15 -35 -21 -67 -21 -53 0 -85 26 -95
78 l-6 32 111 0 111 0 0 40 c0 104 -95 160 -190 112z m105 -34 c24 -11 48 -62
38 -80 -6 -12 -161 -10 -168 2 -8 13 21 67 42 79 24 14 57 14 88 -1z"/>
<path d="M15350 1861 c-51 -27 -72 -70 -72 -145 0 -97 30 -140 115 -160 56
-13 162 41 142 73 -10 17 -30 13 -50 -9 -15 -17 -29 -20 -68 -18 -55 3 -84 29
-89 78 l-3 25 108 3 107 3 0 42 c0 56 -18 88 -60 109 -45 23 -87 23 -130 -1z
m119 -38 c11 -10 24 -33 27 -50 l7 -33 -87 0 c-80 0 -86 1 -86 21 0 65 87 104
139 62z"/>
<path d="M15915 1866 c-44 -19 -61 -42 -45 -61 12 -14 15 -13 34 5 32 29 80
36 111 16 48 -32 23 -63 -70 -85 -68 -17 -95 -44 -95 -96 0 -58 33 -88 95 -88
32 0 52 6 68 21 23 22 23 22 40 2 21 -24 77 -28 77 -5 0 9 -11 20 -25 25 -24
9 -25 12 -25 115 0 59 -4 115 -10 125 -19 36 -100 50 -155 26z m113 -223 c-28
-58 -107 -69 -130 -18 -17 37 10 71 64 80 24 4 50 11 58 16 20 11 26 -41 8
-78z"/>
<path d="M16491 1863 c-54 -28 -75 -64 -79 -136 -4 -70 15 -117 60 -150 52
-39 173 -20 192 30 12 29 -11 37 -40 14 -26 -21 -84 -28 -119 -15 -19 8 -45
55 -45 84 0 19 6 20 111 20 l112 0 -5 51 c-10 96 -103 147 -187 102z m114 -48
c14 -13 25 -36 25 -50 0 -25 -1 -25 -86 -25 l-86 0 6 28 c16 66 96 93 141 47z"/>
<path d="M8000 1742 c0 -146 7 -165 70 -182 45 -12 100 5 119 37 9 16 10 15
11 -9 0 -23 4 -28 25 -28 l25 0 0 155 0 155 -25 0 c-25 0 -25 0 -25 -99 0 -55
-4 -111 -10 -126 -13 -34 -69 -59 -104 -45 -39 14 -46 40 -46 159 0 104 -1
111 -20 111 -19 0 -20 -7 -20 -128z"/>
<path d="M12052 1858 c3 -7 29 -77 58 -155 53 -143 54 -143 85 -143 32 0 32 0
89 148 31 81 56 151 56 155 0 4 -10 7 -22 7 -20 0 -29 -15 -66 -118 -24 -65
-47 -123 -51 -130 -5 -8 -26 36 -56 117 -44 120 -50 131 -72 131 -16 0 -23 -5
-21 -12z"/>
<path d="M15630 1715 l0 -155 25 0 25 0 0 109 c0 94 3 112 21 135 16 20 29 26
59 26 25 0 40 5 44 16 9 24 9 24 -39 24 -32 0 -51 -6 -65 -20 -11 -11 -22 -20
-25 -20 -3 0 -5 9 -5 20 0 13 -7 20 -20 20 -19 0 -20 -7 -20 -155z"/>
</g>
</svg>
